<svg width="1200" height="630" viewBox="0 0 1200 630" xmlns="http://www.w3.org/2000/svg"><rect width="1200" height="630" fill="#0a0a0f"/><rect width="1200" height="5" fill="#2563eb"/><rect x="1" y="1" width="1198" height="628" fill="none" stroke="#1f2937" stroke-width="2"/><text x="80" y="112" font-family="Segoe UI,sans-serif" font-size="48" font-weight="800" fill="#ffffff">Vibe</text><text x="178" y="112" font-family="Segoe UI,sans-serif" font-size="48" font-weight="800" fill="#60a5fa">Lenz</text><rect x="300" y="80" width="110" height="30" rx="15" fill="#1e3a6e"/><text x="355" y="100" font-family="Segoe UI,sans-serif" font-size="13" font-weight="600" fill="#93c5fd" text-anchor="middle">FREE BETA</text><text x="80" y="190" font-family="Segoe UI,sans-serif" font-size="56" font-weight="700" fill="#ffffff">Are they genuinely interested</text><text x="80" y="258" font-family="Segoe UI,sans-serif" font-size="56" font-weight="700" fill="#60a5fa">or just going through the motions?</text><text x="80" y="312" font-family="Segoe UI,sans-serif" font-size="22" font-weight="300" fill="#7a9cc4">Upload a screenshot. Get a clear read on what is really happening.</text><line x1="80" y1="340" x2="1120" y2="340" stroke="#1f2937" stroke-width="1.5"/><rect x="80" y="360" width="210" height="40" rx="8" fill="#052e16" stroke="#166534" stroke-width="1"/><text x="185" y="386" font-family="Segoe UI,sans-serif" font-size="15" font-weight="500" fill="#86efac" text-anchor="middle">Mutual engagement</text><rect x="306" y="360" width="160" height="40" rx="8" fill="#052e16" stroke="#166534" stroke-width="1"/><text x="386" y="386" font-family="Segoe UI,sans-serif" font-size="15" font-weight="500" fill="#86efac" text-anchor="middle">No pressure</text><rect x="482" y="360" width="170" height="40" rx="8" fill="#052e16" stroke="#166534" stroke-width="1"/><text x="567" y="386" font-family="Segoe UI,sans-serif" font-size="15" font-weight="500" fill="#86efac" text-anchor="middle">Clear intentions</text><rect x="80" y="414" width="176" height="40" rx="8" fill="#2d1010" stroke="#7f1d1d" stroke-width="1"/><text x="168" y="440" font-family="Segoe UI,sans-serif" font-size="15" font-weight="500" fill="#fca5a5" text-anchor="middle">Financial pressure</text><rect x="272" y="414" width="150" height="40" rx="8" fill="#2d1010" stroke="#7f1d1d" stroke-width="1"/><text x="347" y="440" font-family="Segoe UI,sans-serif" font-size="15" font-weight="500" fill="#fca5a5" text-anchor="middle">Love bombing</text><rect x="438" y="414" width="150" height="40" rx="8" fill="#2d1010" stroke="#7f1d1d" stroke-width="1"/><text x="513" y="440" font-family="Segoe UI,sans-serif" font-size="15" font-weight="500" fill="#fca5a5" text-anchor="middle">Guilt tripping</text><rect x="604" y="414" width="150" height="40" rx="8" fill="#2d1010" stroke="#7f1d1d" stroke-width="1"/><text x="679" y="440" font-family="Segoe UI,sans-serif" font-size="15" font-weight="500" fill="#fca5a5" text-anchor="middle">Manipulation</text><line x1="80" y1="472" x2="1120" y2="472" stroke="#1f2937" stroke-width="1.5"/><rect x="80" y="492" width="520" height="96" rx="12" fill="#2563eb"/><text x="340" y="548" font-family="Segoe UI,sans-serif" font-size="34" font-weight="700" fill="#ffffff" text-anchor="middle">appvibelenz.com</text><text x="1120" y="530" font-family="Segoe UI,sans-serif" font-size="16" font-weight="300" fill="#4b5563" text-anchor="end">Free. No account needed.</text><text x="1120" y="556" font-family="Segoe UI,sans-serif" font-size="16" font-weight="300" fill="#4b5563" text-anchor="end">Results in seconds.</text></svg>